
<svg height="41px" width="25px" version="1.1" id="Layer_1" xmlns="http://www.w3.org/2000/svg" xmlns:xlink="http://www.w3.org/1999/xlink" viewBox="0 0 64 64" xml:space="preserve" fill="#000000">
    <g id="SVGRepo_bgCarrier" stroke-width="0"></g>
    <g id="SVGRepo_tracerCarrier" stroke-linecap="round" stroke-linejoin="round"></g>
    <g id="SVGRepo_iconCarrier">
        <g>
            <g>
                <path fill="#B4CCB9" d="M32,0C21.3,0,12.4,8.6,12.4,19.2c0,10.6,19.6,44.8,19.6,44.8s19.6-34.1,19.6-44.8C51.6,8.6,42.7,0,32,0z"></path>
                <g>
                    <path fill="#F9EBB2" d="M32,2c9.4,0,17,7.6,17,17c0,9.4-17,35.6-17,35.6S15,28.4,15,19C15,9.6,22.6,2,32,2 M32,0 c-10.7,0-19.6,8.6-19.6,19.2c0,10.6,19.6,44.8,19.6,44.8s19.6-34.1,19.6-44.8C51.6,8.6,42.7,0,32,0L32,0z"></path>
                </g>
            </g>
            <g>
                <path fill="#394240" d="M32,14c-2.8,0-5,2.2-5,5s2.2,5,5,5s5-2.2,5-5S34.8,14,32,14z M32,22c-1.7,0-3-1.3-3-3s1.3-3,3-3 s3,1.3,3,3S33.7,22,32,22z"></path>
            </g>
        </g>
    </g>
</svg>
